<?xml version="1.0" encoding="utf-8"?>
<!-- Generator: Adobe Illustrator 16.0.0, SVG Export Plug-In . SVG Version: 6.00 Build 0)  -->
<!DOCTYPE svg PUBLIC "-//W3C//DTD SVG 1.1//EN" "http://www.w3.org/Graphics/SVG/1.1/DTD/svg11.dtd">
<svg version="1.1" id="Layer_1" xmlns="http://www.w3.org/2000/svg" xmlns:xlink="http://www.w3.org/1999/xlink" x="0px" y="0px"
	 width="500px" height="500px" viewBox="0 0 500 500" enable-background="new 0 0 500 500" xml:space="preserve">
<path fill-rule="evenodd" clip-rule="evenodd" fill="#262B52" d="M409,327.45c8.667,0,13,8.767,13,26.3v50.65
	c0,17.6-4.333,26.399-13,26.399h-92.9v-95h-0.675c7.381-0.163,12.14-2.946,14.275-8.35H409z M409,202.1c8.667,0,13,8.783,13,26.35
	v50.7c0,17.566-4.333,26.35-13,26.35h-78.05V202.1H409z M422,153.8c0,17.6-4.333,26.4-13,26.4h-78.7
	c-1.633-6.567-6.366-10.017-14.2-10.35V76.8H409c8.667,0,13,8.784,13,26.35V153.8z M177.55,170.05
	c-6.5,0.867-10.483,4.25-11.95,10.15H89c-8.667,0-13-8.8-13-26.4v-50.65c0-17.566,4.333-26.35,13-26.35h89.35v93.15
	C178.083,169.95,177.817,169.983,177.55,170.05z M76,353.75c0-17.533,4.333-26.3,13-26.3h77.25c1.947,4.926,5.98,7.676,12.1,8.25
	v95.05L89,430.8c-8.667,0-13-8.8-13-26.399V353.75z M76,279.15v-50.7c0-17.567,4.333-26.35,13-26.35h75.95v103.4H89
	C80.333,305.5,76,296.717,76,279.15z M178.95,195.6c0-9,4.5-13.5,13.5-13.5h1.5V71.45H302V182.1h1.5c8.967,0,13.45,4.5,13.45,13.5
	v111.05c0,8.966-4.483,13.449-13.45,13.449H192.45c-9,0-13.5-4.483-13.5-13.449V195.6z M248.7,205.5c-0.067,0-0.133,0-0.2,0
	c-6,0-11.15,2.133-15.45,6.4c-4.233,4.267-6.35,9.417-6.35,15.45c0,4.8,1.35,9.017,4.05,12.65v0.1l-5.45,46.7h47.851l-6-46.8
	c2.666-3.633,4-7.85,4-12.65c0-6.033-2.134-11.184-6.4-15.45s-9.417-6.4-15.45-6.4c-0.066,0-0.133,0-0.2,0H248.7z M301.35,337.05
	v99.75H193.3v-99.75H301.35z"/>
</svg>
