<?xml version="1.0" encoding="utf-8"?>
<!-- Generator: Adobe Illustrator 16.0.0, SVG Export Plug-In . SVG Version: 6.00 Build 0)  -->
<!DOCTYPE svg PUBLIC "-//W3C//DTD SVG 1.1//EN" "http://www.w3.org/Graphics/SVG/1.1/DTD/svg11.dtd">
<svg version="1.1" id="Layer_1" xmlns="http://www.w3.org/2000/svg" xmlns:xlink="http://www.w3.org/1999/xlink" x="0px" y="0px"
	 width="500px" height="500px" viewBox="0 0 500 500" enable-background="new 0 0 500 500" xml:space="preserve">
<path fill-rule="evenodd" clip-rule="evenodd" fill="#777BB3" d="M423.35,125.6c12.733,0,19.101,6.433,19.101,19.3v22.8H49.6v-22.8
	c0.066-1.267,0.083-1.95,0.05-2.05c-0.033-0.133-0.05-0.95-0.05-2.45v-21.15c0-10.833,5.417-16.25,16.25-16.25H186.7
	c10.833,0,16.25,5.417,16.25,16.25v6.35H423.35z M465.3,195.65L425.75,405.1c-2.42,10.396-8.553,15.945-18.4,16.65H288.1v-89.6
	h46.15l-86-85.95l-86,85.95h46v89.6H90.475c-8.359-0.165-13.718-5.015-16.075-14.55L34.9,196.7c-2.653-11.23,1.08-16.53,11.2-15.9
	h407.7C462.205,182.224,466.038,187.173,465.3,195.65z"/>
</svg>
