<?xml version="1.0" encoding="utf-8"?>
<!-- Generator: Adobe Illustrator 16.0.0, SVG Export Plug-In . SVG Version: 6.00 Build 0)  -->
<!DOCTYPE svg PUBLIC "-//W3C//DTD SVG 1.1//EN" "http://www.w3.org/Graphics/SVG/1.1/DTD/svg11.dtd">
<svg version="1.1" id="Cloud" xmlns="http://www.w3.org/2000/svg" xmlns:xlink="http://www.w3.org/1999/xlink" x="0px" y="0px"
	 width="500px" height="500px" viewBox="0 0 500 500" enable-background="new 0 0 500 500" xml:space="preserve">
<path fill-rule="evenodd" clip-rule="evenodd" fill="#777BB3" d="M364.15,174.85c3.391,3.391,6.341,6.958,8.85,10.7
	c0.321,0.48,0.638,0.964,0.95,1.45c2.521,4.004,4.554,8.204,6.1,12.6c3.225,0.137,6.392,0.412,9.5,0.825
	c21.088,2.838,39.505,12.13,55.25,27.875c19.233,19.233,28.851,42.434,28.851,69.601c0,27.133-9.617,50.3-28.851,69.5
	c-15.732,15.761-34.149,25.078-55.25,27.949c-3.62,0.488-7.32,0.788-11.1,0.9c-0.4,0-0.8,0-1.2,0h-2c-0.833,0-1.667,0-2.5,0H290.1
	V310.7H334.2l-82.15-82.1l-82.1,82.1h43.9v85.55H125.8c-0.867,0-1.716,0-2.55,0c-9.176,0-17.901-1.1-26.175-3.3
	c-16.188-4.305-30.646-12.821-43.375-25.55C43.336,357.036,35.77,345.52,31,332.85c-4.067-10.813-6.1-22.462-6.1-34.949
	c0-12.503,2.033-24.161,6.1-34.976c4.77-12.701,12.336-24.243,22.7-34.625c11.066-11.066,23.45-18.933,37.15-23.6
	c0.462-6.1,1.412-12,2.85-17.7c0.784-3.135,1.717-6.21,2.8-9.225c5.036-14.032,13.252-26.756,24.65-38.175
	c20.167-20.133,44.417-30.35,72.75-30.65c0.434,0,0.867,0,1.3,0c17.502,0,33.453,3.75,47.85,11.25
	c9.375,4.875,18.092,11.342,26.15,19.4c7.033,7.033,12.866,14.583,17.5,22.65c9.1-4.667,19.149-7,30.149-7
	c15.134,0,28.45,4.383,39.95,13.15C359.333,170.333,361.783,172.483,364.15,174.85z"/>
</svg>
