<?xml version="1.0" encoding="utf-8"?>
<!-- Generator: Adobe Illustrator 16.0.0, SVG Export Plug-In . SVG Version: 6.00 Build 0)  -->
<!DOCTYPE svg PUBLIC "-//W3C//DTD SVG 1.1//EN" "http://www.w3.org/Graphics/SVG/1.1/DTD/svg11.dtd">
<svg version="1.1" id="Layer_1" xmlns="http://www.w3.org/2000/svg" xmlns:xlink="http://www.w3.org/1999/xlink" x="0px" y="0px"
	 width="500px" height="500px" viewBox="0 0 500 500" enable-background="new 0 0 500 500" xml:space="preserve">
<path fill-rule="evenodd" clip-rule="evenodd" fill="#FFFFFF" d="M248.4,180c8.3-4.1,14.8-6.217,19.5-6.35
	c5.366,0.133,8.3,3.783,8.8,10.95c0.333,7.167-0.9,16.667-3.7,28.5l-34.6,138.05c-1.467,5.833-2.033,9.983-1.7,12.449
	c0.333,2.467,1.233,3.601,2.7,3.4c3.4-0.333,8.517-2.934,15.35-7.8c6.967-4.867,13.55-10.066,19.75-15.601l6.35,10.5
	c-5.699,7-13.1,14.317-22.199,21.95c-9.267,7.634-18.45,14.15-27.55,19.55c-9.267,5.301-17,8.117-23.2,8.45
	c-3.4,0.2-6.15-1.017-8.25-3.649c-2.133-2.4-3.2-7.184-3.2-14.351c0.2-7.2,1.917-17.533,5.15-31l30.95-128
	c1.467-5.367,2.2-9.35,2.2-11.95s-0.9-3.9-2.7-3.9c-2.267,0-6.566,1.95-12.9,5.85c-6.367,3.733-13.367,8.934-21,15.6l-6.1-11.45
	c9.3-9.133,18.9-17.284,28.8-24.45C230.75,189.65,239.933,184.067,248.4,180z M249.65,94.1c2.267-4.533,5.433-8.35,9.5-11.45
	c4.033-3.066,8.983-4.7,14.85-4.9c6.5,0.2,11.384,2.5,14.65,6.9c3.233,4.233,5.017,9.434,5.35,15.6
	c-0.167,7.933-2.684,14.683-7.55,20.25c-5.033,5.533-11.384,8.45-19.05,8.75c-5.967-0.167-10.851-2.183-14.65-6.05
	c-3.867-4.1-5.967-9.417-6.3-15.95C246.45,102.883,247.517,98.5,249.65,94.1z"/>
</svg>
