<?xml version="1.0" encoding="utf-8"?>
<!-- Generator: Adobe Illustrator 16.0.0, SVG Export Plug-In . SVG Version: 6.00 Build 0)  -->
<!DOCTYPE svg PUBLIC "-//W3C//DTD SVG 1.1//EN" "http://www.w3.org/Graphics/SVG/1.1/DTD/svg11.dtd">
<svg version="1.1" id="Layer_2" xmlns="http://www.w3.org/2000/svg" xmlns:xlink="http://www.w3.org/1999/xlink" x="0px" y="0px"
	 width="500px" height="500px" viewBox="0 0 500 500" enable-background="new 0 0 500 500" xml:space="preserve">
<path fill-rule="evenodd" clip-rule="evenodd" fill="#FFFFFF" d="M366.5,370c-4.233-6.667-8.816-16.866-13.75-30.6
	c-15.8-42.967-31.783-86.801-47.95-131.5c-15.8-44.867-31.333-88.533-46.6-131l-15.05,4.55L141.75,338.35
	c-5.467,14.101-10.417,24.567-14.85,31.4c-4.367,6.6-9.617,11.083-15.75,13.45c-5.933,2.399-14.017,4.267-24.25,5.6v13.55h106.3
	V388.8c-12.233-1-21.067-2.6-26.5-4.8c-5.6-2.2-8.583-5.95-8.95-11.25c-0.333-5.267,1.367-12.983,5.1-23.15
	c3.1-10.199,6.517-20.566,10.25-31.1c3.733-10.366,7.467-21.066,11.2-32.1h104.2c5.467,14.933,10.583,28.866,15.35,41.8
	c4.567,12.7,8.467,23.899,11.7,33.6c3.4,9.2,3.233,15.667-0.5,19.4c-3.899,3.399-13.434,5.934-28.6,7.6v13.55H406.5V388.8
	c-10.333-0.8-18.566-2.399-24.7-4.8C375.866,381.634,370.767,376.967,366.5,370z M238.85,140.6l43.05,124.85h-90.25
	c7.333-20.034,14.917-40.583,22.75-61.65c7.633-21.066,15.434-42.133,23.4-63.2H238.85z M468,449H33V52h435V449z"/>
</svg>
