<?xml version="1.0" encoding="utf-8"?>
<!-- Generator: Adobe Illustrator 16.0.0, SVG Export Plug-In . SVG Version: 6.00 Build 0)  -->
<!DOCTYPE svg PUBLIC "-//W3C//DTD SVG 1.1//EN" "http://www.w3.org/Graphics/SVG/1.1/DTD/svg11.dtd">
<svg version="1.1" id="Layer_1" xmlns="http://www.w3.org/2000/svg" xmlns:xlink="http://www.w3.org/1999/xlink" x="0px" y="0px"
	 width="500px" height="500px" viewBox="0 0 500 500" enable-background="new 0 0 500 500" xml:space="preserve">
<path fill-rule="evenodd" clip-rule="evenodd" fill="#FFFFFF" d="M449.45,181.2c3.967,3.966,5.95,8.75,5.95,14.35v88.8
	c0,5.601-1.983,10.367-5.95,14.301c-3.934,3.966-8.7,5.949-14.3,5.949h-156.9c-5.6,0-10.384-1.983-14.35-5.949
	c-3.934-3.934-5.9-8.7-5.9-14.301V268.15h21.4v10.55c0,5.666,3.083,8.5,9.25,8.5H424.8c6.167,0,9.25-2.834,9.25-8.5v-76.4
	c0-5.7-3.083-8.55-9.25-8.55H288.65c-6.167,0-9.25,2.85-9.25,8.55v9.6H258v-16.35c0-5.6,1.967-10.383,5.9-14.35
	c3.966-3.934,8.75-5.9,14.35-5.9h156.9C440.75,175.3,445.517,177.267,449.45,181.2z M341.6,248.3h-184v-18.45h184V248.3z
	 M235.7,181.2c3.966,3.966,5.95,8.75,5.95,14.35v16.35H220.3v-9.6c0-5.7-3.083-8.55-9.25-8.55H74.9c-6.167,0-9.25,2.85-9.25,8.55
	v76.4c0,5.666,3.083,8.5,9.25,8.5h136.15c6.167,0,9.25-2.834,9.25-8.5v-10.55h21.35v16.199c0,5.601-1.983,10.367-5.95,14.301
	c-3.934,3.966-8.7,5.949-14.3,5.949H64.5c-5.6,0-10.383-1.983-14.35-5.949c-3.933-3.934-5.9-8.7-5.9-14.301v-88.8
	c0-5.6,1.967-10.383,5.9-14.35c3.967-3.934,8.75-5.9,14.35-5.9h156.9C227,175.3,231.767,177.267,235.7,181.2z"/>
</svg>
