<?xml version="1.0" encoding="utf-8"?>
<!-- Generator: Adobe Illustrator 16.0.0, SVG Export Plug-In . SVG Version: 6.00 Build 0)  -->
<!DOCTYPE svg PUBLIC "-//W3C//DTD SVG 1.1//EN" "http://www.w3.org/Graphics/SVG/1.1/DTD/svg11.dtd">
<svg version="1.1" id="Layer_1" xmlns="http://www.w3.org/2000/svg" xmlns:xlink="http://www.w3.org/1999/xlink" x="0px" y="0px"
	 width="500px" height="500px" viewBox="0 0 500 500" enable-background="new 0 0 500 500" xml:space="preserve">
<path fill-rule="evenodd" clip-rule="evenodd" fill="#FFFFFF" d="M380.7,382.45v5.8H109.65v-5.8H380.7z M374.6,114.05v10.7
	c-11.199,0.5-19.3,2.467-24.3,5.9c-5.166,3.3-8.133,8.767-8.899,16.4c-0.534,4.867-1,12.05-1.4,21.55
	c-0.4,9.367-0.6,22.667-0.6,39.9v31.65c0.133,22.1-1.9,41.45-6.101,58.05c-4.233,16.467-11.816,30.434-22.75,41.899
	c-8.833,9.101-19.166,15.75-31,19.95c-11.866,4.233-24.116,6.351-36.75,6.351c-11.066,0-21.867-1.384-32.4-4.15
	c-10.433-3.033-19.917-7.783-28.45-14.25c-11.333-8.434-19.7-20.083-25.1-34.95c-5.4-14.633-8.1-33.017-8.1-55.149V163.05
	c0.133-11.333-0.533-19.566-2-24.7c-1.433-5-4.533-8.417-9.3-10.25c-4.6-1.733-11.833-2.85-21.7-3.35v-10.7h98.2v10.7
	c-9.9,0.267-17.217,1.317-21.95,3.15c-4.733,1.7-7.833,5.184-9.3,10.45c-1.3,5.133-1.883,13.367-1.75,24.7v86.55
	c0,30.7,5.983,54.35,17.95,70.95c12,16.467,29.783,24.767,53.35,24.9c18.066-0.134,32.3-4.816,42.7-14.05
	c10.533-9.2,18.05-21.9,22.55-38.101c4.333-16.2,6.5-34.85,6.5-55.95V208.5c0-17.133-0.267-30.433-0.8-39.9
	c-0.533-9.5-1.184-17.083-1.95-22.75c-0.8-7.233-3.833-12.367-9.1-15.4c-5.534-3.167-14.75-5.067-27.65-5.7v-10.7H374.6z"/>
</svg>
