<?xml version="1.0" encoding="utf-8"?>
<!-- Generator: Adobe Illustrator 16.0.0, SVG Export Plug-In . SVG Version: 6.00 Build 0)  -->
<!DOCTYPE svg PUBLIC "-//W3C//DTD SVG 1.1//EN" "http://www.w3.org/Graphics/SVG/1.1/DTD/svg11.dtd">
<svg version="1.1" id="Layer_2" xmlns="http://www.w3.org/2000/svg" xmlns:xlink="http://www.w3.org/1999/xlink" x="0px" y="0px"
	 width="500px" height="500px" viewBox="0 0 500 500" enable-background="new 0 0 500 500" xml:space="preserve">
<path fill-rule="evenodd" clip-rule="evenodd" fill="#FFFFFF" d="M65.4,333.05c6.633,0.167,11.7,2.45,15.2,6.851
	c3.7,4.399,5.167,9.933,4.4,16.6c-1.133,7.233-4.117,12.967-8.95,17.2c-4.667,4.267-10.333,6.399-17,6.399
	c-6.667,0-11.783-2.133-15.35-6.399c-3.667-4.233-5.067-9.967-4.2-17.2c1.033-6.667,3.95-12.2,8.75-16.6
	C52.983,335.5,58.7,333.217,65.4,333.05z M241.65,103.45h22.95L137.1,393.1h-23L241.65,103.45z M377.2,196.65h74.45l-1.4,10.25
	c-8.134,0.7-14.783,1.75-19.95,3.15c-5,1.133-9.533,3.2-13.6,6.2c-4.066,2.833-8.834,7.083-14.3,12.75
	c-4.634,4.967-10.15,11.217-16.551,18.75c-6.1,7.366-13.233,16.083-21.399,26.15l31.85,60.449c3.8,7.667,7.283,13.483,10.45,17.45
	c3.267,3.967,7.134,6.867,11.6,8.7c4.567,1.866,10.834,3.217,18.801,4.05l-1.45,10.65h-87.65l1.45-10.65
	c8.733-0.833,14.316-2.383,16.75-4.649c2.333-2.267,2.083-6.167-0.75-11.7l-23.75-47.9c-5.467,6.8-10.967,13.967-16.5,21.5
	c-5.533,7.233-10.783,14.601-15.75,22.101c-5,6.666-6.85,11.433-5.55,14.3c1.2,2.833,6.95,4.95,17.25,6.35l-1.45,10.65h-76.4
	l1.45-10.65c8.334-0.833,14.95-2.1,19.851-3.8c5.199-1.7,9.883-4.267,14.05-7.7c4.434-3.533,9.717-8.633,15.85-15.3
	c6.667-7.233,13.384-14.9,20.15-23c6.767-8.2,13.684-16.917,20.75-26.15l-28.05-55.55c-3.101-6.533-5.967-11.566-8.601-15.1
	c-2.967-3.4-6.533-5.883-10.7-7.45c-4.166-1.7-9.899-2.9-17.199-3.6l1.399-10.25H354l-1.4,10.25c-8.767,0.967-14.033,2.733-15.8,5.3
	c-1.633,2.566-0.983,6.617,1.95,12.15l19,37.65c4.9-5.967,9.85-12.133,14.85-18.5c4.801-6.267,9.517-12.8,14.15-19.6
	c4.5-6.233,5.983-10.483,4.45-12.75c-1.533-2.133-6.667-3.55-15.4-4.25L377.2,196.65z"/>
</svg>
