<?xml version="1.0" encoding="utf-8"?>
<!-- Generator: Adobe Illustrator 16.0.0, SVG Export Plug-In . SVG Version: 6.00 Build 0)  -->
<!DOCTYPE svg PUBLIC "-//W3C//DTD SVG 1.1//EN" "http://www.w3.org/Graphics/SVG/1.1/DTD/svg11.dtd">
<svg version="1.1" id="Layer_2" xmlns="http://www.w3.org/2000/svg" xmlns:xlink="http://www.w3.org/1999/xlink" x="0px" y="0px"
	 width="500px" height="500px" viewBox="0 0 500 500" enable-background="new 0 0 500 500" xml:space="preserve">
<path fill-rule="evenodd" clip-rule="evenodd" fill="#FFFFFF" d="M410.9,80.1v14.85c-12.867,1.1-23.25,2.85-31.15,5.25
	c-7.9,2.4-14.967,6.35-21.2,11.85c-6.066,5.534-12.967,13.434-20.7,23.7c-5.333,7.167-12.966,18.017-22.899,32.55
	c-9.9,14.7-23.767,35.383-41.601,62.05c14.7,23.133,29.117,45.733,43.25,67.8c14,22.066,27.434,42.933,40.301,62.6
	c7.899,12.134,15.149,21.6,21.75,28.4c6.433,6.6,13.6,11.366,21.5,14.3c7.899,2.967,17.833,5,29.8,6.1v14.601H270.7V409.55
	c16.166-1.666,26-4.333,29.5-8c3.3-3.5,2.3-9.483-3-17.95c-6.634-11.033-15.917-26.183-27.851-45.449
	c-9.333-15.334-20.25-32.801-32.75-52.4c-8.9,14.066-17.333,27.75-25.3,41.05c-10.667,17.834-20.216,34.566-28.65,50.2
	c-6.8,11.033-8.65,18.75-5.55,23.15c3.133,4.399,13.433,7.533,30.9,9.399v14.601H66.7V409.55c14.9-1.467,27.033-4.416,36.4-8.85
	c9.733-4.4,18.283-11.566,25.65-21.5c6.233-7.9,16.433-22.05,30.6-42.45c14.133-20.233,32.683-48.267,55.65-84.1
	c-13.967-22.234-26.917-42.9-38.85-62c-12.133-19.3-22.883-36.4-32.25-51.3c-7-11.4-13.25-20.033-18.75-25.9
	c-5.533-6.067-11.883-10.383-19.05-12.95c-7.333-2.6-17.067-4.45-29.2-5.55V80.1h149.55v14.85c-10.467,1.1-17.9,2.583-22.3,4.45
	c-4.6,1.633-6.9,3.833-6.9,6.6c0,2.933,1.383,6.6,4.15,11c8.8,15.1,18.35,30.55,28.65,46.35c7.133,11,14.633,22.566,22.5,34.7
	c7.033-11.033,13.45-21.233,19.25-30.6c8.467-13.767,16-27,22.601-39.7c7.166-11.367,9.199-19.267,6.1-23.7
	c-3.134-4.4-13.434-7.433-30.9-9.1V80.1H410.9z"/>
</svg>
