<?xml version="1.0" encoding="utf-8"?>
<!-- Generator: Adobe Illustrator 16.0.0, SVG Export Plug-In . SVG Version: 6.00 Build 0)  -->
<!DOCTYPE svg PUBLIC "-//W3C//DTD SVG 1.1//EN" "http://www.w3.org/Graphics/SVG/1.1/DTD/svg11.dtd">
<svg version="1.1" id="Layer_1" xmlns="http://www.w3.org/2000/svg" xmlns:xlink="http://www.w3.org/1999/xlink" x="0px" y="0px"
	 width="500px" height="500px" viewBox="0 0 500 500" enable-background="new 0 0 500 500" xml:space="preserve">
<path fill-rule="evenodd" clip-rule="evenodd" fill="#FFFFFF" d="M238.3,118.65h-0.85c-6.467,17.1-12.8,34.2-19,51.3
	c-6.367,17.133-12.517,33.833-18.45,50.1h73.3L238.3,118.65z M374.5,320.25v11H277v-11c12.3-1.366,20.033-3.434,23.2-6.2
	c3.033-3.033,3.166-8.283,0.399-15.75c-2.6-7.866-5.767-16.967-9.5-27.3c-3.866-10.5-8.017-21.817-12.449-33.95H194
	c-3.033,8.967-6.067,17.667-9.1,26.101c-3.033,8.533-5.8,16.949-8.3,25.25c-3.033,8.267-4.417,14.533-4.15,18.8
	c0.3,4.3,2.716,7.35,7.25,9.149c4.433,1.767,11.617,3.067,21.55,3.9v11H114.9v-11c8.3-1.1,14.867-2.616,19.7-4.55
	c4.967-1.934,9.233-5.584,12.8-10.95c3.6-5.533,7.617-14.033,12.05-25.5L241.8,70.6l12.25-3.7c12.4,34.5,25.017,69.967,37.851,106.4
	c13.133,36.3,26.116,71.9,38.949,106.8c4,11.167,7.717,19.45,11.15,24.851c3.467,5.666,7.616,9.467,12.45,11.399
	C359.417,318.283,366.1,319.583,374.5,320.25z M405.65,352.55V417H83v-64.45H405.65z"/>
</svg>
