<?xml version="1.0" encoding="utf-8"?>
<!-- Generator: Adobe Illustrator 16.0.0, SVG Export Plug-In . SVG Version: 6.00 Build 0)  -->
<!DOCTYPE svg PUBLIC "-//W3C//DTD SVG 1.1//EN" "http://www.w3.org/Graphics/SVG/1.1/DTD/svg11.dtd">
<svg version="1.1" id="Layer_1" xmlns="http://www.w3.org/2000/svg" xmlns:xlink="http://www.w3.org/1999/xlink" x="0px" y="0px"
	 width="500px" height="500px" viewBox="0 0 500 500" enable-background="new 0 0 500 500" xml:space="preserve">
<path fill-rule="evenodd" clip-rule="evenodd" fill="#FFFFFF" d="M415.3,83.95c-3.7-3.7-8.184-5.55-13.45-5.55H95.7
	c-5.267,0-9.75,1.85-13.45,5.55c-3.7,3.7-5.55,8.183-5.55,13.45v153.45l55.8-55.8L270.6,333.15l51.9-51.9l98.35,98.35V97.4
	C420.85,92.133,419,87.65,415.3,83.95z M424.6,76.3c5.301,5.3,7.95,11.684,7.95,19.15V408.1c0,7.467-2.649,13.834-7.95,19.101
	c-5.267,5.3-11.633,7.95-19.1,7.95H92.85c-7.467,0-13.85-2.65-19.15-7.95c-5.267-5.267-7.9-11.634-7.9-19.101V95.45
	c0-7.467,2.633-13.85,7.9-19.15c5.3-5.267,11.683-7.9,19.15-7.9H405.5C412.967,68.4,419.333,71.033,424.6,76.3z M360.25,174.2
	c0,11.4-4.033,21.133-12.1,29.2c-8.067,8.067-17.801,12.1-29.2,12.1c-11.4,0-21.134-4.033-29.2-12.1
	c-8.066-8.066-12.1-17.8-12.1-29.2c0-11.4,4.033-21.133,12.1-29.2s17.8-12.1,29.2-12.1c11.399,0,21.133,4.033,29.2,12.1
	C356.217,153.067,360.25,162.8,360.25,174.2z"/>
</svg>
