<?xml version="1.0" encoding="utf-8"?>
<!-- Generator: Adobe Illustrator 16.0.0, SVG Export Plug-In . SVG Version: 6.00 Build 0)  -->
<!DOCTYPE svg PUBLIC "-//W3C//DTD SVG 1.1//EN" "http://www.w3.org/Graphics/SVG/1.1/DTD/svg11.dtd">
<svg version="1.1" id="Layer_1" xmlns="http://www.w3.org/2000/svg" xmlns:xlink="http://www.w3.org/1999/xlink" x="0px" y="0px"
	 width="500px" height="500px" viewBox="0 0 500 500" enable-background="new 0 0 500 500" xml:space="preserve">
<path fill-rule="evenodd" clip-rule="evenodd" fill="#FFFFFF" d="M228.6,250.6h-9v84.7c-0.133,14.9,1.95,25.351,6.25,31.351
	c4.167,5.833,11.55,8.6,22.15,8.3c7.833-0.134,15.45-2.283,22.85-6.45c7.367-4.3,13.434-11.066,18.2-20.3
	c4.934-9.4,7.483-21.634,7.65-36.7c0-20.3-5.851-35.45-17.55-45.45C267.616,255.75,250.767,250.6,228.6,250.6z M241.1,125.05
	c-4.633,0-8.333,0.55-11.1,1.65c-2.767,0.9-4.767,1.966-6,3.2c-1.533,1.4-2.617,3.783-3.25,7.15c-0.767,3.233-1.15,7.7-1.15,13.4
	v83.3h10.15c19.233,0.167,33.316-4.067,42.25-12.7c8.767-8.767,13.066-22.45,12.9-41.05c-0.134-13.233-2.284-23.85-6.45-31.85
	c-4.3-8.167-9.767-14.017-16.4-17.55C255.45,126.767,248.467,124.917,241.1,125.05z M337.5,144c4.333,8.3,6.566,17.833,6.7,28.6
	c-0.3,13.4-3.533,24.55-9.7,33.45c-6.134,8.767-14.05,15.767-23.75,21c-9.7,5.067-19.767,8.45-30.2,10.15v1.85
	c15.667,2.167,29.351,6.017,41.05,11.55c11.7,5.7,20.851,13.233,27.45,22.6c6.634,9.399,10.017,20.934,10.15,34.6
	c-0.134,15.4-3.75,28.55-10.851,39.45c-7.066,10.934-16.283,19.783-27.649,26.55c-11.233,6.634-24.55,11.4-39.95,14.3
	c-15.233,3.101-31.45,4.65-48.65,4.65H129.15v-14.8c10.633-0.467,18.4-1.851,23.3-4.15c5.1-2.133,8.417-6.133,9.95-12
	c1.367-5.833,1.983-14.666,1.85-26.5V165.45c0.133-11.7-0.417-20.55-1.65-26.55c-1.533-5.667-4.6-9.583-9.2-11.75
	c-4.767-2-12-3.383-21.7-4.15v-14.75h118.6c16.3,0,29.917,1.217,40.851,3.65c11.233,2.467,20.85,6.467,28.85,12
	C327.366,129,333.2,135.7,337.5,144z"/>
</svg>
