<?xml version="1.0" encoding="utf-8"?>
<!-- Generator: Adobe Illustrator 16.0.0, SVG Export Plug-In . SVG Version: 6.00 Build 0)  -->
<!DOCTYPE svg PUBLIC "-//W3C//DTD SVG 1.1//EN" "http://www.w3.org/Graphics/SVG/1.1/DTD/svg11.dtd">
<svg version="1.1" id="Layer_1" xmlns="http://www.w3.org/2000/svg" xmlns:xlink="http://www.w3.org/1999/xlink" x="0px" y="0px"
	 width="500px" height="500px" viewBox="0 0 500 500" enable-background="new 0 0 500 500" xml:space="preserve">
<path fill-rule="evenodd" clip-rule="evenodd" fill="#FFFFFF" d="M408.7,79.6c-2.118-0.8-4.401-1.2-6.851-1.2H95.7
	c-2.449,0-4.732,0.4-6.85,1.2c-2.42,0.92-4.621,2.37-6.6,4.35c-3.7,3.7-5.55,8.183-5.55,13.45v306.9c0,5.267,1.85,9.75,5.55,13.45
	s8.183,5.55,13.45,5.55H401.85c5.267,0,9.75-1.85,13.45-5.55s5.55-8.184,5.55-13.45V97.4c0-5.267-1.85-9.75-5.55-13.45
	C413.32,81.97,411.12,80.521,408.7,79.6z M427.45,79.6c3.399,4.589,5.1,9.872,5.1,15.85V408.1c0,7.467-2.649,13.834-7.95,19.101
	c-5.267,5.3-11.633,7.95-19.1,7.95H92.85c-7.467,0-13.85-2.65-19.15-7.95c-5.267-5.267-7.9-11.634-7.9-19.101V95.45
	c0-5.978,1.692-11.261,5.075-15.85c0.833-1.143,1.775-2.243,2.825-3.3c5.3-5.267,11.683-7.9,19.15-7.9H405.5
	c7.467,0,13.833,2.633,19.1,7.9C425.657,77.357,426.606,78.457,427.45,79.6z M161.65,136.95l117.2,117.2L161.65,371.35h-40.1
	L239,254.15l-118.05-117.2H161.65z"/>
</svg>
