<?xml version="1.0" encoding="utf-8"?>
<!-- Generator: Adobe Illustrator 16.0.0, SVG Export Plug-In . SVG Version: 6.00 Build 0)  -->
<!DOCTYPE svg PUBLIC "-//W3C//DTD SVG 1.1//EN" "http://www.w3.org/Graphics/SVG/1.1/DTD/svg11.dtd">
<svg version="1.1" id="Layer_1" xmlns="http://www.w3.org/2000/svg" xmlns:xlink="http://www.w3.org/1999/xlink" x="0px" y="0px"
	 width="500px" height="500px" viewBox="0 0 500 500" enable-background="new 0 0 500 500" xml:space="preserve">
<path fill-rule="evenodd" clip-rule="evenodd" fill="#FFFFFF" d="M424.6,76.3c1.058,1.057,2.007,2.157,2.851,3.3
	c3.399,4.589,5.1,9.872,5.1,15.85V408.1c0,7.467-2.649,13.834-7.95,19.101c-5.267,5.3-11.633,7.95-19.1,7.95H92.85
	c-7.467,0-13.85-2.65-19.15-7.95c-5.267-5.267-7.9-11.634-7.9-19.101V95.45c0-5.978,1.692-11.261,5.075-15.85
	c0.833-1.143,1.775-2.243,2.825-3.3c5.3-5.267,11.683-7.9,19.15-7.9H405.5C412.967,68.4,419.333,71.033,424.6,76.3z M420.85,192.15
	l-104.949,0.1V300.4H420.85V192.15z M304.25,192.25l-111.6,0.1V300.4h111.6V192.25z M192.65,312.05V423.3h111.6V312.05H192.65z
	 M181,192.35l-104.3,0.1V300.4H181V192.35z M76.7,312.05v92.25c0,5.267,1.85,9.75,5.55,13.45s8.183,5.55,13.45,5.55H181V312.05H76.7
	z M420.85,404.3v-92.25H315.9V423.3h85.949c5.267,0,9.75-1.85,13.45-5.55S420.85,409.566,420.85,404.3z"/>
</svg>
